Coordinates
version=1
nRows=14
nColumns=24
inDegrees=yes

Units are S.I. units (second, meters, Newtons, ...)
Angles are in degrees.

endheader
time	pelvis_tilt	pelvis_list	pelvis_rotation	pelvis_tx	pelvis_ty	pelvis_tz	hip_flexion_r	hip_adduction_r	hip_rotation_r	knee_angle_r	ankle_angle_r	subtalar_angle_r	mtp_angle_r	hip_flexion_l	hip_adduction_l	hip_rotation_l	knee_angle_l	ankle_angle_l	subtalar_angle_l	mtp_angle_l	lumbar_extension	lumbar_bending	lumbar_rotation
      1.76500000	      5.49975910	     -7.10502747	     -7.90112045	     -0.63243003	      1.00151984	      0.05450763	    -21.57033370	      6.22498655	      2.57787980	     -3.46627488	     13.92606651	     11.83163217	      2.98800605	     14.79236081	     -9.34795880	    -18.35444157	     -2.02816370	      1.86546155	     10.38905105	     18.58768983	    -16.68481524	      8.24165845	      8.46831263
      1.77000000	      5.44118884	     -7.02548019	     -7.82371374	     -0.62697677	      1.00092645	      0.05379543	    -21.76019122	      6.07809265	      2.48991295	     -3.57911994	     13.97980590	     11.94602677	      3.07278855	     14.69006948	     -9.10558639	    -18.25737999	     -1.82931205	      1.53779182	     10.11139908	     18.56150579	    -16.58051049	      8.19486221	      8.31703492
      1.77500000	      5.40793133	     -6.94683410	     -7.71611274	     -0.62151792	      1.00038838	      0.05300981	    -21.97094106	      5.93834235	      2.35762502	     -3.69646107	     14.02560662	     12.07460646	      3.21885670	     14.56599588	     -8.85672350	    -18.12462122	     -1.67736571	      1.12963599	      9.79443155	     18.58034272	    -16.50468485	      8.15393514	      8.14184169
      1.78000000	      5.37612787	     -6.86143842	     -7.61051946	     -0.61613210	      0.99990509	      0.05218605	    -22.14135488	      5.79226947	      2.22207344	     -3.87625352	     13.91125891	     12.15289342	      4.83641349	     14.44659386	     -8.60893023	    -17.95802910	     -1.56533888	      0.50541655	      9.41379175	     19.79930377	    -16.44070622	      8.10553290	      7.99064074
      1.78500000	      5.30893390	     -6.75681124	     -7.50126706	     -0.61074166	      0.99943112	      0.05133348	    -22.27877605	      5.63458060	      2.16002624	     -4.04034878	     13.90211295	     12.16508046	      4.94149332	     14.37386318	     -8.35178000	    -17.77826768	     -1.51985334	     -0.01719402	      9.07753533	     19.72934224	    -16.33565723	      8.04333430	      7.80901229
      1.79000000	      5.26833757	     -6.66597707	     -7.35656822	     -0.60541339	      0.99904033	      0.05041004	    -22.40137080	      5.50066729	      2.01129166	     -4.27947812	     13.88559554	     12.26780934	      5.21188170	     14.27769332	     -8.10498169	    -17.50405258	     -1.49887220	     -0.61711850	      8.66752254	     19.77331664	    -16.26871074	      7.99720890	      7.62595219
      1.79500000	      5.17649994	     -6.54576021	     -7.24481436	     -0.60012575	      0.99866299	      0.04948951	    -22.45456741	      5.33607984	      1.95155067	     -4.51611039	     13.63982408	     12.18931519	      7.44209644	     14.24493667	     -7.85030915	    -17.28082971	     -1.52088909	     -1.43503739	      8.19195484	     21.19971525	    -16.15270211	      7.92333810	      7.46564748
      1.80000000	      5.14348646	     -6.39729199	     -7.11129576	     -0.59483152	      0.99843632	      0.04853746	    -22.54512880	      5.14338826	      1.84388719	     -4.80145611	     13.60163105	     12.18473342	      7.58772301	     14.14825300	     -7.56414102	    -17.04636431	     -1.57542445	     -2.07903114	      7.80818449	     21.11276104	    -16.09845386	      7.80898735	      7.27609940
      1.80500000	      5.08946342	     -6.23919985	     -6.97060150	     -0.58959284	      0.99824998	      0.04754774	    -22.58422845	      4.94711136	      1.72224761	     -5.12820882	     13.54673428	     12.21176042	      7.83298174	     14.09301210	     -7.28005875	    -16.78700893	     -1.67991372	     -2.74202681	      7.37157456	     21.11675766	    -16.02900234	      7.68988586	      7.08753497
      1.81000000	      4.98428201	     -6.08781322	     -6.83644224	     -0.58441829	      0.99809279	      0.04654415	    -22.54718971	      4.76753676	      1.64886049	     -5.46711320	     13.19724578	     12.07340688	     10.54640655	     14.10247619	     -7.02356179	    -16.49791399	     -1.80541884	     -3.61959649	      6.81822282	     22.62586673	    -15.91508287	      7.58555744	      6.92798957
      1.81500000	      4.96836572	     -5.89353400	     -6.67828808	     -0.57920564	      0.99812346	      0.04551922	    -22.58694889	      4.54044575	      1.49909289	     -5.84494953	     13.10260836	     12.06645969	     10.73457310	     14.01345347	     -6.71760079	    -16.22812232	     -1.95553948	     -4.26551024	      6.39140358	     22.52621021	    -15.89220024	      7.42044268	      6.74397426
      1.82000000	      4.92907597	     -5.68043275	     -6.53121801	     -0.57401061	      0.99821583	      0.04448839	    -22.56222623	      4.29384172	      1.33136251	     -6.28457571	     12.96986333	     12.08728826	     11.07126704	     13.95414947	     -6.40719309	    -15.96064443	     -2.13438253	     -4.88048802	      5.91548159	     22.52891276	    -15.84831796	      7.23649023	      6.56296014
      1.82500000	      4.84168446	     -5.47754414	     -6.39145015	     -0.56887735	      0.99832091	      0.04349873	    -22.47544788	      4.06978709	      1.24176677	     -6.71539301	     12.50220197	     11.89830743	     14.30502153	     13.97369276	     -6.13428144	    -15.70947364	     -2.36904102	     -5.61704579	      5.36687082	     23.76933243	    -15.76416098	      7.06306673	      6.39650555
      1.83000000	      4.85125041	     -5.23412494	     -6.23585634	     -0.56367574	      0.99863566	      0.04249270	    -22.46846563	      3.79360243	      1.05136164	     -7.20390611	     12.33997020	     11.91792228	     14.48372540	     13.87664641	     -5.81273269	    -15.46845097	     -2.61149143	     -6.11943395	      4.90665356	     23.65748548	    -15.77771366	      6.83246845	      6.22356582
